<?xml version="1.0" standalone="no"?><!DOCTYPE svg PUBLIC "-//W3C//DTD SVG 1.1//EN" "http://www.w3.org/Graphics/SVG/1.1/DTD/svg11.dtd"><svg t="1505975282866" class="icon" style="" viewBox="0 0 1024 1024" version="1.1" xmlns="http://www.w3.org/2000/svg" p-id="7327" xmlns:xlink="http://www.w3.org/1999/xlink" width="200" height="200"><defs><style type="text/css"></style></defs><path d="M510.6 1021.4C229.2 1021.4 0 792.4 0 510.6S229.2 0 510.6 0s510.6 229.2 510.6 510.6S792.2 1021.4 510.6 1021.4zM510.6 88.4C278 88.4 88.4 278 88.4 510.6S278 933 510.6 933s422.2-189.4 422.2-422.4S743.4 88.4 510.6 88.4z" p-id="7328" fill="#127a1e" class=""></path><path d="M510.6 510.6m-341.4 0a170.7 170.7 0 1 0 682.8 0 170.7 170.7 0 1 0-682.8 0Z" p-id="7329" fill="#1e9a2c" class=""></path></svg>