<?xml version="1.0" standalone="no"?><!DOCTYPE svg PUBLIC "-//W3C//DTD SVG 1.1//EN" "http://www.w3.org/Graphics/SVG/1.1/DTD/svg11.dtd"><svg t="1508201617018" class="icon" style="" viewBox="0 0 1024 1024" version="1.1" xmlns="http://www.w3.org/2000/svg" p-id="19227" xmlns:xlink="http://www.w3.org/1999/xlink" width="250" height="250"><defs><style type="text/css"></style></defs><path d="M512 0C229.23668 0 0 229.23668 0 512S229.23668 1024 512 1024c282.76332 0 512-229.23668 512-512S794.76332 0 512 0zM848.540735 519.105306c0 30.78966-24.938231 55.727891-55.727891 55.727891L510.02166 574.833197l-6.297252 0c-30.78966 0-55.727891-24.938231-55.727891-55.727891l0-6.297252L447.996517 230.016871c0-30.78966 24.938231-55.727891 55.727891-55.727891l6.297252 0c30.78966 0 55.727891 24.938231 55.727891 55.727891l0 227.063293 227.063293 0c30.78966 0 55.727891 24.938231 55.727891 55.727891L848.540735 519.105306z" p-id="19228" fill="#f1510b"></path></svg>