<?xml version="1.0" standalone="no"?><!DOCTYPE svg PUBLIC "-//W3C//DTD SVG 1.1//EN" "http://www.w3.org/Graphics/SVG/1.1/DTD/svg11.dtd"><svg t="1508142792861" class="icon" style="" viewBox="0 0 1024 1024" version="1.1" xmlns="http://www.w3.org/2000/svg" p-id="4369" xmlns:xlink="http://www.w3.org/1999/xlink" width="200" height="200"><defs><style type="text/css"></style></defs><path d="M512 28.444444C244.622222 28.444444 28.444444 244.622222 28.444444 512s216.177778 483.555556 483.555556 483.555556 483.555556-216.177778 483.555556-483.555556S779.377778 28.444444 512 28.444444z m301.511111 318.577778L477.866667 682.666667l-39.822223 39.822222c-14.222222 14.222222-34.133333 14.222222-48.355555 0L347.022222 682.666667l-139.377778-139.377778c-14.222222-14.222222-14.222222-34.133333 0-48.355556s34.133333-14.222222 48.355556 0l156.444444 156.444445 352.711112-352.711111c14.222222-14.222222 34.133333-14.222222 48.355555 0s14.222222 36.977778 0 48.355555z" fill="#25B980" p-id="4370"></path></svg>