<?xml version="1.0" standalone="no"?><!DOCTYPE svg PUBLIC "-//W3C//DTD SVG 1.1//EN" "http://www.w3.org/Graphics/SVG/1.1/DTD/svg11.dtd"><svg t="1508231571600" class="icon" style="" viewBox="0 0 1024 1024" version="1.1" xmlns="http://www.w3.org/2000/svg" p-id="20662" xmlns:xlink="http://www.w3.org/1999/xlink" width="250" height="250"><defs><style type="text/css"></style></defs><path d="M512 0C229.269333 0 0 229.269333 0 512s229.269333 512 512 512 512-229.269333 512-512S794.730667 0 512 0zM777.92 778.197333c-2.752 2.688-6.336 4.010667-9.92 4.010667-3.712 0-7.402667-1.429333-10.197333-4.309333L513.216 526.336 266.048 773.504c-2.773333 2.773333-6.421333 4.16-10.048 4.16s-7.274667-1.386667-10.048-4.16c-5.568-5.546667-5.568-14.549333 0-20.117333l247.445333-247.445333L260.032 265.92c-5.482667-5.632-5.354667-14.634667 0.277333-20.117333s14.634667-5.333333 20.117333 0.277333L513.493333 485.824l239.893333-239.893333c5.568-5.568 14.570667-5.568 20.117333 0 5.546667 5.546667 5.546667 14.549333 0 20.096L533.333333 506.218667l244.864 251.861333C783.658667 763.712 783.552 772.714667 777.92 778.197333z" p-id="20663" fill="#f72706"></path></svg>