<?xml version="1.0" standalone="no"?><!DOCTYPE svg PUBLIC "-//W3C//DTD SVG 1.1//EN" "http://www.w3.org/Graphics/SVG/1.1/DTD/svg11.dtd"><svg t="1508824389943" class="icon" style="" viewBox="0 0 1024 1024" version="1.1" xmlns="http://www.w3.org/2000/svg" p-id="2541" xmlns:xlink="http://www.w3.org/1999/xlink" width="250" height="250"><defs><style type="text/css"></style></defs><path d="M1020.381161 889.641943c4.347005 17.384949 3.441379 33.869389-2.714831 49.446156-6.161327 15.576767-15.758915 29.340235-28.801976 41.294498-13.042037 11.955286-28.976962 21.375843-47.813982 28.256554s-39.123043 10.323113-60.857043 10.323113c-136.931672 0.725524-259.367189 1.087774-367.317807 1.087774L143.384213 1020.050038c-26.086122 0-49.089022-4.711302-69.007677-14.131859-19.925818-9.41544-35.863812-21.007453-47.819099-34.770921-11.955286-13.768585-19.925818-28.801976-23.905456-45.103244-3.984754-16.298198-3.444449-30.973432 1.62808-44.011376 4.347005-10.140964 8.696056-20.650319 13.043061-31.516808 3.621481-9.41544 7.969509-20.104897 13.037944-32.055067 5.072529-11.955286 10.504238-24.090675 16.302291-36.408211l41.294498-99.982132 123.890658 0-46.731324 136.929626 699.860599 0-46.730301-136.929626 118.454856 0c15.213493 36.953633 28.976962 70.278623 41.294498 99.982132 5.071506 13.043061 10.139941 25.717731 15.213493 38.035268s9.597589 23.36515 13.582343 33.144888c3.984754 9.783831 7.243985 18.11559 9.783831 24.997324C1019.110215 885.11279 1020.381161 888.916419 1020.381161 889.641943L1020.381161 889.641943zM473.74941 688.596044c-13.763468-15.940041-29.520337-35.864836-47.273676-59.774385-17.748223-23.903409-36.040844-48.539506-54.876842-73.894987-18.838044-25.359574-37.491892-50.352805-55.970756-74.986855-18.47477-24.63098-34.954093-46.0058-49.446156-64.116273-16.660448-19.563568-23.178909-35.68371-19.556405-48.359404 3.622504-12.678764 15.932878-19.017122 36.947494-19.017122 11.590989 0.725524 27.16878 0.545422 46.731324-0.543376 19.562545-1.087774 35.859719-1.632173 48.90278-1.632173 14.488992 0 23.547299-4.348028 27.167756-13.037944 3.623527-8.696056 5.431709-20.287045 5.431709-34.776038 0-15.941064-0.182149-33.507138-0.544399-52.707432-0.35918-19.198248-0.538259-38.941917-0.538259-59.228963s-0.181125-40.207747-0.544399-59.769268c-0.36225-19.561521-0.545422-37.671994-0.545422-54.338582 0-7.245008 0.545422-14.851243 1.62808-22.820752 1.086751-7.970532 3.621481-15.214517 7.606235-21.732977 3.984754-6.5246 9.783831-11.954263 17.392112-16.303314 7.607258-4.347005 17.928325-6.51846 30.971385-6.51846 15.21554 0 29.160133-0.180102 41.839921-0.543376 12.674671-0.36225 27.351951-0.544399 44.010353-0.544399 23.910573 0 40.030715 5.616928 48.363498 16.84669 8.329712 11.229762 12.857842 29.160133 13.583366 53.789067L615.02911 116.966968c0 16.666588 0.180102 34.414811 0.543376 53.250808 0.36225 18.835997 0.544399 37.678134 0.544399 56.514131l0 51.074236c0 21.013593 2.170432 37.855166 6.51846 50.534953 4.345981 12.68081 14.124695 18.654872 29.339212 17.929348 10.867512 0 24.090675 0.36225 39.668465 1.087774 15.578814 0.725524 29.160133 1.087774 40.750099 1.087774 19.562545 0 32.061207 5.250584 37.493939 15.757892 5.435803 10.504238 1.63115 24.087605-11.411911 40.751123-13.763468 17.385972-29.701462 38.397518-47.815005 63.029522-18.110473 24.63405-36.764322 50.170656-55.962569 76.614935-19.201318 26.443255-38.037315 52.167127-56.516178 77.158311-18.472723 24.998347-34.95 46.550199-49.444109 64.660672-13.037944 16.665565-25.536606 25.179472-37.491892 25.537629C499.287039 712.320375 486.794517 704.531991 473.74941 688.596044L473.74941 688.596044zM473.74941 688.596044" p-id="2542" fill="#ffffff"></path></svg>