<?xml version="1.0" standalone="no"?><!DOCTYPE svg PUBLIC "-//W3C//DTD SVG 1.1//EN" "http://www.w3.org/Graphics/SVG/1.1/DTD/svg11.dtd"><svg t="1508144172142" class="icon" style="" viewBox="0 0 1024 1024" version="1.1" xmlns="http://www.w3.org/2000/svg" p-id="15688" xmlns:xlink="http://www.w3.org/1999/xlink" width="200" height="200"><defs><style type="text/css"></style></defs><path d="M512 1024C229.376 1024 0 794.624 0 512S229.376 0 512 0 1024 229.376 1024 512s-229.376 512-512 512z m81.92-776.192c0-35.84-36.864-64.512-81.92-64.512-45.568 0-81.92 29.184-81.92 64.512v301.056c0 35.84 36.864 64.512 81.92 64.512 45.568 0 81.92-29.184 81.92-64.512v-301.056z m-81.408 423.936c-45.568-1.536-83.456 34.816-83.968 79.872-1.536 45.568 34.816 83.456 79.872 83.968h4.096c45.568-1.536 81.408-39.424 79.872-83.968-0.512-43.52-36.352-79.36-79.872-79.872z" fill="#d81e06" p-id="15689"></path></svg>