<?xml version="1.0" standalone="no"?><!DOCTYPE svg PUBLIC "-//W3C//DTD SVG 1.1//EN" "http://www.w3.org/Graphics/SVG/1.1/DTD/svg11.dtd"><svg t="1505466008853" class="icon" style="" viewBox="0 0 1024 1024" version="1.1" xmlns="http://www.w3.org/2000/svg" p-id="6171" xmlns:xlink="http://www.w3.org/1999/xlink" width="200" height="200"><defs><style type="text/css"></style></defs><path d="M569.395 192.018L287.312 448.925h616.929c23.174 0 42.864 23.694 42.864 46.868s-21.336 54.245-44.509 54.245H287.23l256.798 243.36c16.51 16.453 14.727 54.574-6.17 72.782-17.579 15.332-43.275 16.455-59.784 0L121.178 533.227c-8.803-8.803-12.533-20.458-11.957-31.95-0.604-11.462 3.154-26.956 11.957-35.732l383.195-342.772c16.509-16.455 46.402-12.56 63.294 3.511 18.237 17.33 18.237 49.253 1.728 65.734z" p-id="6172" fill="#515151"></path></svg>