<?xml version="1.0" standalone="no"?><!DOCTYPE svg PUBLIC "-//W3C//DTD SVG 1.1//EN" "http://www.w3.org/Graphics/SVG/1.1/DTD/svg11.dtd"><svg t="1503644135029" class="icon" style="" viewBox="0 0 1089 1024" version="1.1" xmlns="http://www.w3.org/2000/svg" p-id="2673" xmlns:xlink="http://www.w3.org/1999/xlink" width="212.6953125" height="200"><defs><style type="text/css"></style></defs><path d="M719.203982 533.038617 726.081122 541.826072 719.203982 533.038617Z" p-id="2674" fill="#108ee9"></path><path d="M771.265133 246.028651c-34.224827 0-64.50837 17.353717-84.275119 44.359559-9.260008 12.648306-16.227636 27.39796-20.178974 43.494889 25.115634 26.432747 42.157668 61.803764 46.953568 101.397587 0.904887 7.410017 1.518199 14.910523 1.518199 22.592006 0 0.965213-0.080434 1.900262-0.130706 2.85542-0.07038 1.477982-0.130706 2.966018-0.201086 4.443999 3.569275 2.372814 7.29942 4.504325 11.109998 6.464913 13.744224 7.007845 28.986539 11.120053 45.184011 11.120053 16.227636 0 31.580547-4.011665 45.41526-10.999401 6.133121-3.106778 11.964614-6.796705 17.424097-11.039618 27.568883-21.475979 45.636455-56.57553 45.636455-96.259841C879.740945 299.055014 831.118364 246.028651 771.265133 246.028651z" p-id="2675" fill="#108ee9"></path><path d="M872.723045 533.038617c-10.788261-8.696967-22.25016-16.177364-34.355533-22.028965l-17.202902 22.028965-4.484217 5.741004-46.470961 59.50133-44.12831-56.454878-6.877139-8.787456-13.060532-16.710242c-1.658959 5.730949-3.72009 11.260813-5.901872 16.710242-8.043438 20.068377-19.394739 38.206329-33.430538 53.408426 22.039019 13.512975 41.886202 30.786258 59.270082 50.914961 48.612527 56.334227 77.468359 135.652577 77.468359 222.199967 0 2.634226-0.251357 5.348886-0.291575 7.983112 4.524434-0.603258 8.998596-1.35733 13.422487-2.201891 58.948344-11.200487 109.481241-43.273695 141.564504-87.432168 1.035593-7.711646 1.769556-15.51378 2.29238-23.396349l0-38.256601C955.439748 639.081289 921.607038 572.451462 872.723045 533.038617z" p-id="2676" fill="#108ee9"></path><path d="M689.835381 646.823097c-16.810785-17.223011-35.732972-31.268864-56.29401-41.192455l-17.001816 21.747445-15.202097 19.445011-41.494084 53.06658-41.524247-53.06658-21.646902-27.669426-10.275492-13.140966c-20.2393 9.903483-38.890021 23.798521-55.479612 40.810392-46.621776 47.798129-76.513201 120.681728-76.513201 202.644359 0 15.242314 1.266841 30.11262 3.207321 44.721514 6.273881 8.626587 13.251564 16.770568 20.752069 24.502322 35.551995 36.597642 84.174576 62.427131 139.26207 71.355347l85.552014 0c55.519829-9.00865 104.504364-35.159877 140.106631-72.230071 7.178768-7.460288 13.864876-15.322749 19.897454-23.627598 1.940479-14.608894 3.227429-29.489253 3.227429-44.721514C766.408907 767.504826 736.467211 694.611172 689.835381 646.823097z" p-id="2677" fill="#108ee9"></path><path d="M675.447681 460.728112c-0.502715-8.757293-1.779611-17.263228-3.810579-25.447426-8.214361-33.219398-28.312901-61.069801-55.087494-77.759934-17.122468-10.677664-36.889216-16.861056-58.013294-16.861056-30.022131 0-57.309494 12.37684-78.051509 32.575923-16.740405 16.30807-29.117244 37.713669-35.139768 62.045068-2.020914 8.184198-3.297809 16.690133-3.800524 25.447426-0.150814 2.634226-0.361955 5.238289-0.361955 7.912732 0 23.506947 5.911927 45.455477 16.066767 64.387719 9.652125 18.007246 23.205318 33.169126 39.432953 44.178582 17.967029 12.185808 39.12127 19.344468 61.854036 19.344468 21.124078 0 40.880772-6.183393 58.013294-16.851002 17.886595-11.150216 32.797117-27.277308 43.19326-46.672047 10.15484-18.932241 16.076821-40.880772 16.076821-64.387719C675.809636 465.976455 675.588441 463.362338 675.447681 460.728112z" p-id="2678" fill="#108ee9"></path><path d="M408.54631 290.38821c-19.8874-27.005842-50.311703-44.359559-84.476205-44.359559-59.983937 0-108.516029 53.026363-108.516029 118.43962 0 39.684311 18.027355 74.783862 45.616346 96.259841 12.58798 9.80294 27.156657 16.740405 42.962012 19.947726 6.474967 1.307059 13.120858 2.08124 19.927617 2.08124 23.336024 0 44.842165-8.304849 62.497511-22.028965l4.353511 0 0-25.447426 0-13.824659c6.193447-31.027561 20.018106-58.978507 39.302247-81.369427C426.654099 321.536422 419.042996 304.645203 408.54631 290.38821z" p-id="2679" fill="#108ee9"></path><path d="M411.743576 533.038617c-2.835312-7.068171-5.258397-14.397753-7.198877-21.938476l-0.180977-0.100543-13.462704 17.223011-3.760307 4.816008-50.985341 65.242334-32.032991-40.991369-18.95235-24.250965-16.951545-21.687119c-11.854016 5.791275-23.064558 13.171129-33.641678 21.687119-53.106797 42.831306-88.46776 117.826308-88.46776 203.498974 0 14.136342 1.156244 27.860457 2.986126 41.373433 34.496293 47.516608 90.357968 80.957201 155.017153 89.54357 2.493466 0.331792 4.966823 0.703801 7.480397 0.965213-0.060326-2.935855-0.291575-5.962198-0.291575-8.857836 0-87.723742 29.670231-168.2285 79.589816-224.743704 16.418667-18.60045 35.019117-34.596836 55.49972-47.395957C431.892388 571.968855 419.998154 553.559437 411.743576 533.038617z" p-id="2680" fill="#108ee9"></path></svg>