<?xml version="1.0" standalone="no"?><!DOCTYPE svg PUBLIC "-//W3C//DTD SVG 1.1//EN" "http://www.w3.org/Graphics/SVG/1.1/DTD/svg11.dtd"><svg t="1503646117579" class="icon" style="" viewBox="0 0 1024 1024" version="1.1" xmlns="http://www.w3.org/2000/svg" p-id="10576" xmlns:xlink="http://www.w3.org/1999/xlink" width="200" height="200"><defs><style type="text/css"></style></defs><path d="M206.361737 325.206267l611.201102 0c31.178914 0 56.530483-25.332108 56.530483-56.582784 0-31.46718-25.308998-56.582784-56.530483-56.582784L206.361737 212.040699c-31.177698 0-56.530483 25.332108-56.530483 56.582784C149.831255 300.090663 175.140252 325.206267 206.361737 325.206267z" p-id="10577" fill="#108ee9"></path><path d="M206.361737 551.537403l611.201102 0c31.178914 0 56.530483-25.332108 56.530483-56.582784 0-31.46718-25.308998-56.582784-56.530483-56.582784L206.361737 438.371835c-31.177698 0-56.530483 25.332108-56.530483 56.582784C149.831255 526.421799 175.140252 551.537403 206.361737 551.537403z" p-id="10578" fill="#108ee9"></path><path d="M206.361737 777.869755l611.201102 0c31.178914 0 56.530483-25.332108 56.530483-56.582784 0-31.46718-25.308998-56.582784-56.530483-56.582784L206.361737 664.704187c-31.177698 0-56.530483 25.332108-56.530483 56.582784C149.831255 752.754151 175.140252 777.869755 206.361737 777.869755z" p-id="10579" fill="#108ee9"></path></svg>