<?xml version="1.0" standalone="no"?><!DOCTYPE svg PUBLIC "-//W3C//DTD SVG 1.1//EN" "http://www.w3.org/Graphics/SVG/1.1/DTD/svg11.dtd"><svg t="1503648929822" class="icon" style="" viewBox="0 0 1024 1024" version="1.1" xmlns="http://www.w3.org/2000/svg" p-id="1027" xmlns:xlink="http://www.w3.org/1999/xlink" width="200" height="200"><defs><style type="text/css"></style></defs><path d="M642.921795 839.71688c-0.367367 40.47176-16.031115 73.246211-45.815465 99.414197-24.534789 21.555945-53.389978 31.387871-85.797062 31.562856-73.597205 0.397043-131.931798-62.895469-130.389676-130.977054-2.14178 0-4.276397 0-6.412037 0-73.840752 0-147.680481 0.033769-221.521233-0.014326-34.912138-0.022513-63.126736-25.705452-66.423829-60.286038-0.275269-2.889817-0.318248-5.338588 2.438539-7.66354 72.757071-61.362556 116.200512-140.473335 139.39477-231.626381 9.725502-38.220487 15.746636-77.142961 18.466584-116.470665 1.820462-26.331715 2.578732-52.750411 3.287883-79.143525 1.094938-40.74396 13.915941-77.512375 36.738739-110.960161 41.857317-61.344137 99.937107-97.106642 172.923398-109.22054 2.172479-0.360204 4.330632-0.816598 6.901177-1.304715-8.257058-25.7515-3.200902-47.581692 20.491707-62.170968 17.361413-10.69048 35.902698-9.975189 52.501748 1.798972 21.255093 15.077394 25.616424 36.113499 17.436114 60.452837 22.270213 3.365654 43.810808 8.444323 64.358797 16.912182 69.343321 28.576849 117.244284 78.000492 142.798287 148.598386 7.43125 20.529569 9.598612 42.085514 9.667174 63.882959 0.207731 66.035996 6.92369 131.335211 23.569812 195.36041 17.319457 66.617234 47.555086 126.866433 92.168166 179.369204 13.397125 15.767102 29.367865 29.364795 44.373627 43.732014 2.592035 2.481518 3.787256 4.63967 3.411703 8.271384-3.632737 35.098379-31.517831 60.457954-66.829058 60.473303-73.66986 0.031722-147.33972 0.00921-221.008556 0.00921C647.630027 839.71688 645.607974 839.71688 642.921795 839.71688zM508.383636 929.729963c-0.044002 0 0.638543-0.014326 1.319042 0.002047 7.324826 0.174985 10.382465-2.14485 10.527774-7.995091 0.141216-5.692652-2.530636-7.66354-9.633405-8.458649-7.233752-0.810459-14.623046-1.565658-21.532409-3.683902-24.51944-7.518231-50.182936-33.041534-50.715055-69.107961-0.096191-6.503111-2.827395-9.092076-8.514931-8.943696-5.473665 0.143263-7.978718 3.218298-7.847735 9.635451C422.975431 889.332904 459.84106 927.422408 508.383636 929.729963z" p-id="1028" fill="#cdcdcd"></path></svg>