<?xml version="1.0" standalone="no"?><!DOCTYPE svg PUBLIC "-//W3C//DTD SVG 1.1//EN" "http://www.w3.org/Graphics/SVG/1.1/DTD/svg11.dtd"><svg t="1508296970109" class="icon" style="" viewBox="0 0 1026 1024" version="1.1" xmlns="http://www.w3.org/2000/svg" p-id="25004" xmlns:xlink="http://www.w3.org/1999/xlink" width="250.48828125" height="250"><defs><style type="text/css"></style></defs><path d="" p-id="25005" fill="#cdcdcd"></path><path d="M378.789 520.548c0 97.804 79.285 177.089 177.089 177.089s177.089-79.285 177.089-177.089c0-97.804-79.285-177.089-177.089-177.089-97.804 0-177.089 79.285-177.089 177.089 0 0 0 0 0 0z" p-id="25006" fill="#cdcdcd"></path><path d="M61.111 520.548c0 43.308 35.107 78.415 78.415 78.415s78.415-35.108 78.415-78.415c0 0 0 0 0 0 0-43.308-35.108-78.415-78.415-78.415-43.308 0-78.415 35.107-78.415 78.415 0 0 0 0 0 0z" p-id="25007" fill="#cdcdcd"></path><path d="M677.844 154.924c0 43.308 35.108 78.415 78.415 78.415s78.415-35.108 78.415-78.415c0 0 0 0 0 0 0-43.308-35.108-78.415-78.415-78.415-43.308 0-78.415 35.107-78.415 78.415 0 0 0 0 0 0z" p-id="25008" fill="#cdcdcd"></path><path d="M544.315 743.924c119.878 6.279 224.009-83.636 234.407-204.149 2.115-24.518 0.191-48.454-5.22-71.149l176.484 25.15c0 0-27.793 410.481-447.993 318.976l42.321-68.828z" p-id="25009" fill="#cdcdcd"></path><path d="M678.926 879.082c0 43.308 35.108 78.415 78.415 78.415s78.415-35.107 78.415-78.415c0 0 0 0 0 0 0-43.308-35.107-78.415-78.415-78.415-43.308 0-78.415 35.107-78.415 78.415 0 0 0 0 0 0z" p-id="25010" fill="#cdcdcd"></path><path d="M369.77 396.803c-66.339 100.046-41.833 235.427 56.665 305.634 20.040 14.284 41.631 24.794 63.926 31.669l-111.363 139.204c0 0-339.376-232.576-46.991-547.938l37.763 71.43z" p-id="25011" fill="#cdcdcd"></path><path d="M368.293 396.803c-66.339 100.046-41.833 235.427 56.665 305.634 20.040 14.284 41.631 24.794 63.926 31.669l-111.363 139.204c0 0-339.376-232.576-46.991-547.938l37.763 71.43z" p-id="25012" fill="#cdcdcd"></path><path d="M491.248 734.743c0 0-26.293-9.007-58.612-28.059-60.256-35.522-150.124-164.519-63.905-308.859l-38.2-70.939c0 0-299.477 279.081 50.068 547.664l110.648-139.807z" p-id="25013" fill="#cdcdcd"></path><path d="M403.089 357.11c0 0 20.991-18.217 53.695-36.6 60.973-34.275 217.655-47.227 299.192 99.809l80.529 2.581c0 0-90.989-399.115-498.766-231.677l65.35 165.887z" p-id="25014" fill="#cdcdcd"></path></svg>